<?xml version="1.0" encoding="UTF-8" standalone="no"?>
<!-- Created with Inkscape (http://www.inkscape.org/) -->

<svg
   xmlns:dc="http://purl.org/dc/elements/1.1/"
   xmlns:cc="http://creativecommons.org/ns#"
   xmlns:rdf="http://www.w3.org/1999/02/22-rdf-syntax-ns#"
   xmlns:svg="http://www.w3.org/2000/svg"
   xmlns="http://www.w3.org/2000/svg"
   xmlns:sodipodi="http://sodipodi.sourceforge.net/DTD/sodipodi-0.dtd"
   xmlns:inkscape="http://www.inkscape.org/namespaces/inkscape"
   width="241.28572"
   height="220.71429"
   id="svg4441"
   version="1.1"
   inkscape:version="0.48.3.1 r9886"
   sodipodi:docname="Neues Dokument 8">
  <defs
     id="defs4443" />
  <sodipodi:namedview
     id="base"
     pagecolor="#ffffff"
     bordercolor="#666666"
     borderopacity="1.0"
     inkscape:pageopacity="0.0"
     inkscape:pageshadow="2"
     inkscape:zoom="1.4"
     inkscape:cx="103.56797"
     inkscape:cy="163.83612"
     inkscape:document-units="px"
     inkscape:current-layer="layer1"
     showgrid="true"
     fit-margin-top="0"
     fit-margin-left="0"
     fit-margin-right="0"
     fit-margin-bottom="0"
     inkscape:window-width="1366"
     inkscape:window-height="692"
     inkscape:window-x="0"
     inkscape:window-y="24"
     inkscape:window-maximized="1">
    <inkscape:grid
       type="xygrid"
       id="grid4965"
       empspacing="5"
       visible="true"
       enabled="true"
       snapvisiblegridlinesonly="true"
       originx="-179.5px"
       originy="-379.78571px" />
  </sodipodi:namedview>
  <metadata
     id="metadata4446">
    <rdf:RDF>
      <cc:Work
         rdf:about="">
        <dc:format>image/svg+xml</dc:format>
        <dc:type
           rdf:resource="http://purl.org/dc/dcmitype/StillImage" />
        <dc:title></dc:title>
      </cc:Work>
    </rdf:RDF>
  </metadata>
  <g
     inkscape:label="Ebene 1"
     inkscape:groupmode="layer"
     id="layer1"
     transform="translate(-179.5,-451.86218)">
    <rect
       style="fill:none;stroke:#c8c8c8;stroke-opacity:1"
       id="rect4449"
       width="134.28572"
       height="125.71429"
       x="180"
       y="452.36218" />
    <path
       style="fill:none;stroke:#c8c8c8;stroke-width:1px;stroke-linecap:butt;stroke-linejoin:miter;stroke-opacity:1"
       d="m 230,512.36218 10,0 0,-10 10,0 0,10 10,0 0,10 -10,0 0,10 -10,0 0,-10 -10,0 z"
       id="path4967"
       inkscape:connector-curvature="0" />
    <rect
       y="478.36218"
       x="286"
       height="125.71429"
       width="134.28572"
       id="rect4969"
       style="fill:none;stroke:#c8c8c8;stroke-opacity:1" />
    <path
       inkscape:connector-curvature="0"
       id="path4971"
       d="m 336,538.36218 10,0 0,-10 10,0 0,10 10,0 0,10 -10,0 0,10 -10,0 0,-10 -10,0 z"
       style="fill:none;stroke:#c8c8c8;stroke-width:1px;stroke-linecap:butt;stroke-linejoin:miter;stroke-opacity:1" />
    <path
       style="fill:#8d8d8d;fill-opacity:1;stroke:#c8c8c8;stroke-opacity:1"
       d="m 286,546.375 0,31.6875 28.28125,0 0,-31.6875 -28.28125,0 z"
       id="rect4990"
       inkscape:connector-curvature="0" />
    <rect
       style="fill:none;stroke:#c8c8c8;stroke-opacity:1"
       id="rect4973"
       width="134.28572"
       height="125.71429"
       x="188"
       y="546.36218" />
    <path
       style="fill:none;stroke:#c8c8c8;stroke-width:1px;stroke-linecap:butt;stroke-linejoin:miter;stroke-opacity:1"
       d="m 238,606.36218 10,0 0,-10 10,0 0,10 10,0 0,10 -10,0 0,10 -10,0 0,-10 -10,0 z"
       id="path4975"
       inkscape:connector-curvature="0" />
    <path
       inkscape:connector-curvature="0"
       id="path4988"
       d="m 294,559.02885 4.66667,0 0,-4.66667 4.66666,0 0,4.66667 4.66667,0 0,4.66666 -4.66667,0 0,4.66667 -4.66666,0 0,-4.66667 -4.66667,0 z"
       style="fill:#ffc211;fill-opacity:1;stroke:none" />
  </g>
</svg>
