<?xml version="1.0" encoding="UTF-8" standalone="no"?>
<!-- Created with Inkscape (http://www.inkscape.org/) -->

<svg
   xmlns:dc="http://purl.org/dc/elements/1.1/"
   xmlns:cc="http://creativecommons.org/ns#"
   xmlns:rdf="http://www.w3.org/1999/02/22-rdf-syntax-ns#"
   xmlns:svg="http://www.w3.org/2000/svg"
   xmlns="http://www.w3.org/2000/svg"
   xmlns:sodipodi="http://sodipodi.sourceforge.net/DTD/sodipodi-0.dtd"
   xmlns:inkscape="http://www.inkscape.org/namespaces/inkscape"
   width="432.71429"
   height="240.71428"
   id="svg2"
   version="1.1"
   inkscape:version="0.48.3.1 r9886"
   sodipodi:docname="Neues Dokument 1">
  <defs
     id="defs4" />
  <sodipodi:namedview
     id="base"
     pagecolor="#ffffff"
     bordercolor="#666666"
     borderopacity="1.0"
     inkscape:pageopacity="0.0"
     inkscape:pageshadow="2"
     inkscape:zoom="0.7"
     inkscape:cx="129.15203"
     inkscape:cy="112.26984"
     inkscape:document-units="px"
     inkscape:current-layer="layer1"
     showgrid="false"
     fit-margin-top="0"
     fit-margin-left="0"
     fit-margin-right="0"
     fit-margin-bottom="0"
     inkscape:window-width="1366"
     inkscape:window-height="692"
     inkscape:window-x="0"
     inkscape:window-y="24"
     inkscape:window-maximized="1" />
  <metadata
     id="metadata7">
    <rdf:RDF>
      <cc:Work
         rdf:about="">
        <dc:format>image/svg+xml</dc:format>
        <dc:type
           rdf:resource="http://purl.org/dc/dcmitype/StillImage" />
        <dc:title></dc:title>
      </cc:Work>
    </rdf:RDF>
  </metadata>
  <g
     inkscape:label="Ebene 1"
     inkscape:groupmode="layer"
     id="layer1"
     transform="translate(-111.78572,-277.00505)">
    <path
       sodipodi:type="arc"
       style="fill:none;stroke:#e9e9e9;stroke-width:5;stroke-linejoin:round;stroke-miterlimit:4;stroke-opacity:1;stroke-dasharray:none"
       id="path2985"
       sodipodi:cx="285"
       sodipodi:cy="383.07648"
       sodipodi:rx="117.85714"
       sodipodi:ry="117.85714"
       d="m 402.85714,383.07648 c 0,65.0907 -52.76644,117.85714 -117.85714,117.85714 -65.0907,0 -117.85714,-52.76644 -117.85714,-117.85714 0,-65.0907 52.76644,-117.85714 117.85714,-117.85714 65.0907,0 117.85714,52.76644 117.85714,117.85714 z"
       transform="translate(-52.857143,14.285714)" />
    <path
       transform="matrix(-0.16666667,0,0,-0.16666667,279.64286,461.20827)"
       d="m 402.85714,383.07648 c 0,65.0907 -52.76644,117.85714 -117.85714,117.85714 -65.0907,0 -117.85714,-52.76644 -117.85714,-117.85714 0,-65.0907 52.76644,-117.85714 117.85714,-117.85714 65.0907,0 117.85714,52.76644 117.85714,117.85714 z"
       sodipodi:ry="117.85714"
       sodipodi:rx="117.85714"
       sodipodi:cy="383.07648"
       sodipodi:cx="285"
       id="path3757"
       style="fill:#e9e9e9;fill-opacity:1;stroke:#e9e9e9;stroke-width:5;stroke-linejoin:round;stroke-miterlimit:4;stroke-opacity:1;stroke-dasharray:none"
       sodipodi:type="arc" />
    <path
       transform="translate(139.14286,14.285714)"
       d="m 402.85714,383.07648 c 0,65.0907 -52.76644,117.85714 -117.85714,117.85714 -65.0907,0 -117.85714,-52.76644 -117.85714,-117.85714 0,-65.0907 52.76644,-117.85714 117.85714,-117.85714 65.0907,0 117.85714,52.76644 117.85714,117.85714 z"
       sodipodi:ry="117.85714"
       sodipodi:rx="117.85714"
       sodipodi:cy="383.07648"
       sodipodi:cx="285"
       id="path3759"
       style="fill:none;stroke:#e9e9e9;stroke-width:5;stroke-linejoin:round;stroke-miterlimit:4;stroke-opacity:1;stroke-dasharray:none"
       sodipodi:type="arc" />
    <path
       sodipodi:type="arc"
       style="fill:#e9e9e9;fill-opacity:1;stroke:#e9e9e9;stroke-width:5;stroke-linejoin:round;stroke-miterlimit:4;stroke-opacity:1;stroke-dasharray:none"
       id="path3761"
       sodipodi:cx="285"
       sodipodi:cy="383.07648"
       sodipodi:rx="117.85714"
       sodipodi:ry="117.85714"
       d="m 402.85714,383.07648 c 0,65.0907 -52.76644,117.85714 -117.85714,117.85714 -65.0907,0 -117.85714,-52.76644 -117.85714,-117.85714 0,-65.0907 52.76644,-117.85714 117.85714,-117.85714 65.0907,0 117.85714,52.76644 117.85714,117.85714 z"
       transform="matrix(-0.16666667,0,0,-0.16666667,471.64286,461.20827)" />
    <path
       style="fill:#ffbb17;fill-opacity:1;stroke:#e9e9e9;stroke-width:5;stroke-linejoin:round;stroke-miterlimit:4;stroke-opacity:1;stroke-dasharray:none"
       d="m 328.125,328.96875 c -13.75688,19.28186 -21.84375,42.91471 -21.84375,68.40625 0,25.49154 8.08687,49.09314 21.84375,68.375 C 341.8884,446.46537 350,422.87317 350,397.375 c 0,-25.49817 -8.1116,-49.12162 -21.875,-68.40625 z"
       id="path3764"
       inkscape:connector-curvature="0" />
  </g>
</svg>
