<?xml version="1.0" encoding="UTF-8" standalone="no"?>
<!-- Created with Inkscape (http://www.inkscape.org/) -->

<svg
   xmlns:dc="http://purl.org/dc/elements/1.1/"
   xmlns:cc="http://creativecommons.org/ns#"
   xmlns:rdf="http://www.w3.org/1999/02/22-rdf-syntax-ns#"
   xmlns:svg="http://www.w3.org/2000/svg"
   xmlns="http://www.w3.org/2000/svg"
   xmlns:sodipodi="http://sodipodi.sourceforge.net/DTD/sodipodi-0.dtd"
   xmlns:inkscape="http://www.inkscape.org/namespaces/inkscape"
   width="900"
   height="600"
   id="svg2"
   version="1.1"
   inkscape:version="0.48.3.1 r9886"
   sodipodi:docname="gradient_1.svg">
  <defs
     id="defs4" />
  <sodipodi:namedview
     id="base"
     pagecolor="#ffffff"
     bordercolor="#666666"
     borderopacity="1.0"
     inkscape:pageopacity="0.0"
     inkscape:pageshadow="2"
     inkscape:zoom="0.98994949"
     inkscape:cx="276.21146"
     inkscape:cy="274.32339"
     inkscape:document-units="px"
     inkscape:current-layer="layer2"
     showgrid="false"
     inkscape:window-width="1680"
     inkscape:window-height="1001"
     inkscape:window-x="0"
     inkscape:window-y="25"
     inkscape:window-maximized="1" />
  <metadata
     id="metadata7">
    <rdf:RDF>
      <cc:Work
         rdf:about="">
        <dc:format>image/svg+xml</dc:format>
        <dc:type
           rdf:resource="http://purl.org/dc/dcmitype/StillImage" />
        <dc:title></dc:title>
      </cc:Work>
    </rdf:RDF>
  </metadata>
  <g
     inkscape:groupmode="layer"
     id="layer2"
     inkscape:label="conn">
    <path
       style="fill:none;stroke:#ff7f2a;stroke-width:6.2693491;stroke-linecap:butt;stroke-linejoin:miter;stroke-miterlimit:4;stroke-opacity:1;stroke-dasharray:none"
       d="M 700.51105,88.815918 462.39029,201.54331 273.66692,159.74552 148.27353,292.73849 343.32991,359.86828 697.97785,380.13388 480.12268,530.85925 342.0633,361.13488 269.86712,159.74552"
       id="path4008"
       inkscape:connector-curvature="0" />
    <path
       style="fill:none;stroke:#ff7f2a;stroke-width:6.2693491;stroke-linecap:butt;stroke-linejoin:miter;stroke-miterlimit:4;stroke-opacity:1;stroke-dasharray:none"
       d="M 343.32991,358.60169 461.12368,199.01011"
       id="path4518"
       inkscape:connector-curvature="0" />
    <path
       style="fill:none;stroke:#ff7f2a;stroke-width:6.2693491;stroke-linecap:butt;stroke-linejoin:miter;stroke-miterlimit:4;stroke-opacity:1;stroke-dasharray:none"
       d="M 462.39029,199.01011 697.97785,380.13388"
       id="path4520"
       inkscape:connector-curvature="0" />
    <text
       xml:space="preserve"
       style="font-size:18px;font-style:normal;font-weight:normal;line-height:125%;letter-spacing:0px;word-spacing:0px;fill:#000000;fill-opacity:1;stroke:none;font-family:Sans"
       x="-91.749809"
       y="282.54456"
       id="text4562"
       sodipodi:linespacing="125%"
       transform="matrix(0.68597853,-0.72762178,0.72762178,0.68597853,0,0)"><tspan
         sodipodi:role="line"
         id="tspan4564"
         x="-91.749809"
         y="282.54456"
         style="font-size:20px">[[3.5, 7.3], <tspan
   style="font-weight:bold;-inkscape-font-specification:Sans Bold"
   id="tspan4587">1</tspan>]</tspan></text>
    <text
       xml:space="preserve"
       style="font-size:18px;font-style:normal;font-weight:normal;line-height:125%;letter-spacing:0px;word-spacing:0px;fill:#000000;fill-opacity:1;stroke:none;font-family:Sans"
       x="278.38025"
       y="251.7731"
       id="text4562-1"
       sodipodi:linespacing="125%"
       transform="matrix(0.93066602,0.36586986,-0.36586986,0.93066602,0,0)"><tspan
         sodipodi:role="line"
         id="tspan4564-5"
         x="278.38025"
         y="251.7731"
         style="font-size:20px">[[3.5, 7.3], <tspan
   style="font-weight:bold;-inkscape-font-specification:Sans Bold"
   id="tspan4589">1</tspan>]</tspan></text>
  </g>
  <g
     inkscape:label="nodes"
     inkscape:groupmode="layer"
     id="layer1"
     transform="translate(0,-452.36218)">
    <path
       sodipodi:type="arc"
       style="fill:#d40000;fill-opacity:1;stroke:#000000"
       id="path3072-3"
       sodipodi:cx="247.48738"
       sodipodi:cy="151.99734"
       sodipodi:rx="19.192898"
       sodipodi:ry="18.687822"
       d="m 266.68028,151.99734 a 19.192898,18.687822 0 1 1 -38.3858,0 19.192898,18.687822 0 1 1 38.3858,0 z"
       transform="matrix(1.0228938,0,0,1.0166512,-103.61318,589.30579)" />
    <path
       sodipodi:type="arc"
       style="fill:#ffeeaa;fill-opacity:1;stroke:#000000"
       id="path3072-3-0"
       sodipodi:cx="247.48738"
       sodipodi:cy="151.99734"
       sodipodi:rx="19.192898"
       sodipodi:ry="18.687822"
       d="m 266.68028,151.99734 a 19.192898,18.687822 0 1 1 -38.3858,0 19.192898,18.687822 0 1 1 38.3858,0 z"
       transform="matrix(1.0228938,0,0,1.0166512,19.247001,458.84601)" />
    <path
       sodipodi:type="arc"
       style="fill:#ffeeaa;fill-opacity:1;stroke:#000000"
       id="path3072-3-3"
       sodipodi:cx="247.48738"
       sodipodi:cy="151.99734"
       sodipodi:rx="19.192898"
       sodipodi:ry="18.687822"
       d="m 266.68028,151.99734 a 19.192898,18.687822 0 1 1 -38.3858,0 19.192898,18.687822 0 1 1 38.3858,0 z"
       transform="matrix(1.0228938,0,0,1.0166512,90.176599,657.70218)" />
    <path
       sodipodi:type="arc"
       style="fill:#ffeeaa;fill-opacity:1;stroke:#000000"
       id="path3072-3-7"
       sodipodi:cx="247.48738"
       sodipodi:cy="151.99734"
       sodipodi:rx="19.192898"
       sodipodi:ry="18.687822"
       d="m 266.68028,151.99734 a 19.192898,18.687822 0 1 1 -38.3858,0 19.192898,18.687822 0 1 1 38.3858,0 z"
       transform="matrix(1.0228938,0,0,1.0166512,207.97037,496.84401)" />
    <path
       sodipodi:type="arc"
       style="fill:#ffeeaa;fill-opacity:1;stroke:#000000"
       id="path3072-3-1"
       sodipodi:cx="247.48738"
       sodipodi:cy="151.99734"
       sodipodi:rx="19.192898"
       sodipodi:ry="18.687822"
       d="m 266.68028,151.99734 a 19.192898,18.687822 0 1 1 -38.3858,0 19.192898,18.687822 0 1 1 38.3858,0 z"
       transform="matrix(1.0228938,0,0,1.0166512,229.50257,827.42655)" />
    <path
       sodipodi:type="arc"
       style="fill:#ffeeaa;fill-opacity:1;stroke:#000000"
       id="path3072-3-9"
       sodipodi:cx="247.48738"
       sodipodi:cy="151.99734"
       sodipodi:rx="19.192898"
       sodipodi:ry="18.687822"
       d="m 266.68028,151.99734 a 19.192898,18.687822 0 1 1 -38.3858,0 19.192898,18.687822 0 1 1 38.3858,0 z"
       transform="matrix(1.0228938,0,0,1.0166512,444.82454,385.38323)" />
    <path
       sodipodi:type="arc"
       style="fill:#ffeeaa;fill-opacity:1;stroke:#000000"
       id="path3072-3-74"
       sodipodi:cx="247.48738"
       sodipodi:cy="151.99734"
       sodipodi:rx="19.192898"
       sodipodi:ry="18.687822"
       d="m 266.68028,151.99734 a 19.192898,18.687822 0 1 1 -38.3858,0 19.192898,18.687822 0 1 1 38.3858,0 z"
       transform="matrix(1.0228938,0,0,1.0166512,443.55793,676.70118)" />
  </g>
</svg>
